HIERARCHY
ROOT Hips
{
 OFFSET 0.000000 0.000000 0.000000
 CHANNELS 6 Xposition Yposition Zposition Yrotation Xrotation Zrotation
 JOINT Chest
 {
  OFFSET 0.000000 9.585900 0.002600
  CHANNELS 3 Yrotation Xrotation Zrotation
  JOINT Chest2
  {
   OFFSET 0.000000 9.601200 -0.005300
   CHANNELS 3 Yrotation Xrotation Zrotation
   JOINT Chest3
   {
    OFFSET 0.000000 9.561800 0.000000
    CHANNELS 3 Yrotation Xrotation Zrotation
    JOINT Chest4
    {
     OFFSET 0.000000 9.552100 0.000000
     CHANNELS 3 Yrotation Xrotation Zrotation
     JOINT Neck
     {
      OFFSET 0.000000 14.453000 0.000000
      CHANNELS 3 Yrotation Xrotation Zrotation
      JOINT Head
      {
       OFFSET 0.000000 8.936500 -0.011300
       CHANNELS 3 Yrotation Xrotation Zrotation
       End Site
       {
        OFFSET 0.000000 17.073600 -0.006000
       }
      }
     }
     JOINT RightCollar
     {
      OFFSET -2.921100 9.558500 0.000000
      CHANNELS 3 Yrotation Xrotation Zrotation
      JOINT RightShoulder
      {
       OFFSET -13.519700 0.000000 0.000000
       CHANNELS 3 Yrotation Xrotation Zrotation
       JOINT RightElbow
       {
        OFFSET 0.000000 -29.696600 0.000000
        CHANNELS 3 Yrotation Xrotation Zrotation
        JOINT RightWrist
        {
         OFFSET 0.000000 -24.004700 0.000000
         CHANNELS 3 Yrotation Xrotation Zrotation
         End Site
         {
          OFFSET 0.000000 -17.728500 0.000000
         }
        }
       }
      }
     }
     JOINT LeftCollar
     {
      OFFSET 2.921100 9.558500 0.000000
      CHANNELS 3 Yrotation Xrotation Zrotation
      JOINT LeftShoulder
      {
       OFFSET 13.519700 0.000000 0.000000
       CHANNELS 3 Yrotation Xrotation Zrotation
       JOINT LeftElbow
       {
        OFFSET 0.000000 -29.696600 0.000000
        CHANNELS 3 Yrotation Xrotation Zrotation
        JOINT LeftWrist
        {
         OFFSET 0.000000 -24.004700 0.000000
         CHANNELS 3 Yrotation Xrotation Zrotation
         End Site
         {
          OFFSET 0.000000 -17.728500 0.000000
         }
        }
       }
      }
     }
    }
   }
  }
 }
 JOINT RightHip
 {
  OFFSET -7.771700 -0.012900 -0.001300
  CHANNELS 3 Yrotation Xrotation Zrotation
  JOINT RightKnee
  {
   OFFSET 0.000000 -40.869800 0.001200
   CHANNELS 3 Yrotation Xrotation Zrotation
   JOINT RightAnkle
   {
    OFFSET 0.000000 -39.717900 0.002100
    CHANNELS 3 Yrotation Xrotation Zrotation
    JOINT RightToe
    {
     OFFSET 0.000000 -4.965400 11.033500
     CHANNELS 3 Yrotation Xrotation Zrotation
     End Site
     {
      OFFSET 0.000000 -1.423100 5.872300
     }
    }
   }
  }
 }
 JOINT LeftHip
 {
  OFFSET 7.771700 -0.012900 -0.001300
  CHANNELS 3 Yrotation Xrotation Zrotation
  JOINT LeftKnee
  {
   OFFSET 0.000000 -40.869800 0.001200
   CHANNELS 3 Yrotation Xrotation Zrotation
   JOINT LeftAnkle
   {
    OFFSET 0.000000 -39.717900 0.002100
    CHANNELS 3 Yrotation Xrotation Zrotation
    JOINT LeftToe
    {
     OFFSET 0.000000 -4.965400 11.033500
     CHANNELS 3 Yrotation Xrotation Zrotation
     End Site
     {
      OFFSET 0.000000 -1.423100 5.872300
     }
    }
   }
  }
 }
}
MOTION
Frames: 8
Frame Time: 0.008333
-46.845745 62.180960 13.435880 176.478027 -52.428221 0.565647 3.767080 27.070103 -0.133179 0.595859 4.593681 -0.035346 0.950629 7.276686 -0.040581 2.952005 21.848969 0.260062 -0.031048 15.515025 3.606543 -1.358564 -6.904877 6.726844 6.561666 6.508628 6.486899 -0.325391 -13.502111 -13.126102 -81.427986 -52.429960 124.681573 5.030894 -6.599844 -32.519135 -9.910794 3.947769 -1.401496 -6.214625 -10.532032 19.612655 91.192135 -62.939110 -122.362473 13.643540 -10.526225 11.459616 3.941783 -14.322626 -7.153845 3.454679 62.012991 -0.985345 1.400870 -9.348623 10.718794 0.037454 -0.162160 0.014167 0.677450 -3.279044 6.929064 126.626385 84.449598 135.005416 -5.132513 -16.893348 -9.643600 0.444031 -21.556495 -0.962427
-46.845398 62.181653 13.435390 176.479417 -52.425849 0.560094 3.762369 27.069758 -0.126128 0.599462 4.592594 -0.038893 0.949196 7.277915 -0.041689 2.941985 21.851335 0.260163 -0.018111 15.510796 3.601378 -1.344788 -6.908869 6.723576 6.572304 6.505384 6.481791 -0.318357 -13.501604 -13.125821 -81.433498 -52.433573 124.686735 5.042293 -6.585144 -32.511007 -9.904711 3.941868 -1.404403 -6.218347 -10.528374 19.624360 91.206097 -62.928615 -122.367662 13.637033 -10.523287 11.461812 3.938436 -14.321657 -7.154501 3.462895 62.009087 -0.968179 1.396643 -9.349547 10.718894 0.042569 -0.160375 0.007151 0.675471 -3.280947 6.931869 126.642520 84.449935 135.021683 -5.125204 -16.896342 -9.642639 0.442836 -21.553859 -0.966353
-46.845244 62.182411 13.434922 176.482160 -52.423542 0.555530 3.762660 27.070008 -0.121453 0.598728 4.591260 -0.039991 0.945623 7.279788 -0.044354 2.941332 21.851091 0.259445 -0.010541 15.509230 3.601408 -1.330779 -6.912222 6.720888 6.578058 6.507435 6.488252 -0.317107 -13.504921 -13.130244 -81.430808 -52.444467 124.687795 5.043786 -6.584807 -32.509046 -9.905067 3.942417 -1.405492 -6.215427 -10.531028 19.629697 91.227050 -62.935852 -122.393772 13.641310 -10.519253 11.472807 3.931332 -14.320673 -7.155158 3.477929 62.004460 -0.951296 1.396116 -9.349134 10.714541 0.042118 -0.161979 0.008382 0.672559 -3.282786 6.934826 126.597576 84.442591 134.971050 -5.122182 -16.902166 -9.631848 0.439338 -21.547931 -0.978261
-46.844104 62.183261 13.434477 176.478244 -52.421857 0.550870 3.766557 27.070316 -0.118336 0.598741 4.591218 -0.039897 0.943054 7.281233 -0.042168 2.942073 21.850774 0.259018 -0.002785 15.508212 3.600973 -1.325026 -6.915637 6.719489 6.583274 6.510408 6.494337 -0.318897 -13.507847 -13.136497 -81.434773 -52.452558 124.698233 5.043983 -6.581789 -32.506996 -9.905776 3.942015 -1.406838 -6.209989 -10.534112 19.632910 91.237724 -62.948574 -122.406657 13.641467 -10.514123 11.480173 3.930782 -14.318679 -7.147914 3.483522 61.998039 -0.943338 1.395639 -9.344996 10.716345 0.042444 -0.165140 0.006437 0.672428 -3.283224 6.941309 126.561809 84.438472 134.933974 -5.115898 -16.903127 -9.633631 0.434495 -21.546149 -0.981624
-46.842553 62.183578 13.434519 176.467256 -52.415961 0.549525 3.770576 27.069872 -0.111828 0.598724 4.590828 -0.040099 0.945582 7.278491 -0.043164 2.943479 21.850680 0.258800 0.004807 15.508970 3.599480 -1.321516 -6.919110 6.720313 6.591546 6.520157 6.489755 -0.326263 -13.517131 -13.132190 -81.426779 -52.463257 124.681279 5.057047 -6.572621 -32.478993 -9.904969 3.940548 -1.407024 -6.218510 -10.533801 19.637755 91.244139 -62.957564 -122.402168 13.630430 -10.510246 11.488126 3.932677 -14.322579 -7.134843 3.481913 61.992358 -0.945999 1.392126 -9.336560 10.716899 0.042613 -0.166927 0.010376 0.677644 -3.287400 6.950353 126.578476 84.441611 134.952871 -5.110185 -16.907551 -9.635272 0.434756 -21.543342 -0.984000
-46.841225 62.184466 13.434108 176.450496 -52.414594 0.554602 3.777775 27.070949 -0.108603 0.595027 4.594270 -0.046484 0.955544 7.272824 -0.035656 2.944235 21.850674 0.258828 0.010932 15.512980 3.595441 -1.308052 -6.920755 6.720638 6.590727 6.525820 6.488172 -0.324569 -13.522087 -13.131080 -81.426576 -52.466503 124.677405 5.056490 -6.573613 -32.473566 -9.910890 3.939523 -1.411579 -6.238226 -10.525250 19.649307 91.268733 -62.959378 -122.400271 13.606864 -10.510131 11.493858 3.935394 -14.323062 -7.126783 3.486996 61.987592 -0.941611 1.397585 -9.325141 10.717245 0.037683 -0.170664 0.009054 0.686263 -3.284597 6.954598 126.592393 84.445069 134.970190 -5.096539 -16.911438 -9.639846 0.431333 -21.540142 -0.985797
-46.839694 62.185499 13.433543 176.435048 -52.414888 0.558020 3.786018 27.073276 -0.108295 0.595986 4.596735 -0.044791 0.957928 7.271003 -0.036506 2.951015 21.850687 0.261645 0.013956 15.517574 3.593424 -1.271986 -6.911653 6.703168 6.586008 6.528389 6.489140 -0.318586 -13.523365 -13.134150 -81.435806 -52.466024 124.678663 5.060488 -6.564020 -32.472535 -9.923203 3.941035 -1.408557 -6.239720 -10.527487 19.654817 91.281421 -62.970498 -122.396733 13.587761 -10.490118 11.499386 3.938405 -14.324866 -7.120764 3.486752 61.986629 -0.935370 1.403132 -9.304458 10.713715 0.037951 -0.180850 0.008055 0.689371 -3.279840 6.959753 126.571893 84.446521 134.947910 -5.087703 -16.914498 -9.636281 0.431845 -21.537566 -0.996328
-46.838060 62.186468 13.432969 176.422448 -52.415046 0.559361 3.793278 27.077101 -0.105167 0.596616 4.598122 -0.044104 0.958041 7.270192 -0.038393 2.952023 21.851068 0.259223 0.023096 15.524195 3.593788 -1.264526 -6.916876 6.702582 6.586690 6.528680 6.490433 -0.317090 -13.525672 -13.134103 -81.424817 -52.471462 124.668336 5.066826 -6.564396 -32.467174 -9.927244 3.938161 -1.403361 -6.234716 -10.528541 19.657024 91.291572 -62.979252 -122.404373 13.593196 -10.488408 11.501860 3.935842 -14.326568 -7.111135 3.482561 61.985723 -0.940341 1.409156 -9.285670 10.715258 0.039168 -0.188029 0.005435 0.693894 -3.276267 6.963769 126.571708 84.447786 134.949079 -5.073479 -16.915841 -9.632915 0.430384 -21.536644 -1.007892
